<svg id="Layer_1" data-name="Layer 1" xmlns="http://www.w3.org/2000/svg" viewBox="0 0 64 64">
  <defs>
    <style>
      .cls-1 {
        fill: #05930c;
      }

      .cls-2 {
        fill: #0b9e0b;
      }

      .cls-3 {
        fill: #fff;
      }
    </style>
  </defs>
  <title>logo_Csharp</title>
  <circle class="cls-1" cx="32" cy="32" r="31" transform="translate(-13.25 32) rotate(-45)"/>
  <path class="cls-2" d="M53.92,10.08a31,31,0,0,1,0,43.84L10.08,10.08A31,31,0,0,1,53.92,10.08Z"/>
  <g>
    <path class="cls-3" d="M30.46,45a17.21,17.21,0,0,1-7.4,1.52,13.47,13.47,0,0,1-5.39-1,12,12,0,0,1-4.13-2.9,12.93,12.93,0,0,1-2.64-4.41A16.26,16.26,0,0,1,10,32.54a17.38,17.38,0,0,1,1-5.93,14.07,14.07,0,0,1,2.82-4.77,13,13,0,0,1,4.44-3.17,14.31,14.31,0,0,1,5.85-1.15,17.51,17.51,0,0,1,6.39,1.09v2.77A14.17,14.17,0,0,0,24,19.89a11.77,11.77,0,0,0-4.82.94,10,10,0,0,0-3.55,2.61,11.56,11.56,0,0,0-2.21,3.95,15.57,15.57,0,0,0-.76,5,14.88,14.88,0,0,0,.68,4.56,11,11,0,0,0,2,3.74,9.6,9.6,0,0,0,3.33,2.54,10.76,10.76,0,0,0,4.63.94,14.43,14.43,0,0,0,7.11-1.7Z"/>
    <path class="cls-3" d="M54,27.72h-5.2L47.47,34H53l-.43,1.8H47.12l-1.7,7.77h-2l1.68-7.77H40L38.37,43.6h-2L38,35.82H32.7l.37-1.8h5.33l1.33-6.31H34.17l.39-1.8h5.55L41.79,18h2l-1.68,7.93h5.08L48.89,18h2l-1.7,7.93h5.25Zm-12.26,0L40.38,34h5.1l1.37-6.31Z"/>
  </g>
</svg>
